<svg width="200" height="200" viewBox="0 0 200 200" fill="none" xmlns="http://www.w3.org/2000/svg">
  <!-- 'T' -->
  <path d="M40 30L60 30L60 35L50 35L50 90L45 90L45 35L35 35L35 30L40 30Z" fill="white"/>
  <!-- 'E' -->
  <path d="M75 30L95 30L95 35L80 35L80 55L95 55L95 60L80 60L80 85L95 85L95 90L75 90L75 30Z" fill="white"/>
  <!-- 'C' -->
  <path d="M115 30L125 30C135 30 145 40 145 50C145 60 135 70 125 70L115 70L115 30Z" fill="white"/>
  <!-- 'H' -->
  <path d="M155 30L160 30L160 55L170 55L170 30L175 30L175 90L170 90L170 60L160 60L160 90L155 90L155 30Z" fill="white"/>
</svg>
